<?xml version="1.0" encoding="utf-8"?>
<!-- Generator: Adobe Illustrator 27.6.1, SVG Export Plug-In . SVG Version: 6.00 Build 0)  -->
<svg version="1.1" id="Layer_1" xmlns="http://www.w3.org/2000/svg" xmlns:xlink="http://www.w3.org/1999/xlink" x="0px" y="0px"
	 viewBox="0 0 640 512" style="enable-background:new 0 0 640 512;" xml:space="preserve">
<style type="text/css">
	.st0{fill:#934799;}
</style>
<path class="st0" d="M407,47c9.4-9.4,24.6-9.4,33.9,0l17.2,17.2c1.9-0.1,3.9-0.2,5.8-0.2h32c11.2,0,21.9,2.3,31.6,6.5L543,55
	c9.4-9.4,24.6-9.4,33.9,0s9.4,24.6,0,33.9l-12.9,13c7.6,12.2,12,26.7,12,42.1c0,10.2,7.4,18.8,16.7,23c27.9,12.5,47.3,40.5,47.3,73
	c0,26.2-12.6,49.4-32,64v32c0,8.8-7.2,16-16,16h-32c-8.8,0-16-7.2-16-16v-16h-64v16c0,8.8-7.2,16-16,16h-32c-8.8,0-16-7.2-16-16
	v-17.6c-11.8-2.4-22.7-7.4-32-14.4c-1.5-1.1-2.9-2.3-4.3-3.5c-17-14.7-27.7-36.4-27.7-60.5c0-8.8-7.2-16-16-16s-16,7.2-16,16
	c0,44.7,26.2,83.2,64,101.2V352c0,17.7,14.3,32,32,32h32v64c0,17.7-14.3,32-32,32h-64c-17.7,0-32-14.3-32-32v-76
	c-19.8,7.7-41.4,12-64,12s-44.2-4.3-64-12v76c0,17.7-14.3,32-32,32H96c-17.7,0-32-14.3-32-32V329.1l-18.1,40.6
	c-5.4,12.1-19.6,17.6-31.7,12.2s-17.5-19.5-12.1-31.6L24,300.9c5.3-11.9,8-24.7,8-37.7C32,155.7,117.2,68,223.8,64.1L224,64h7.2H256
	h32c41.7,0,83.4,12.1,117.2,25.7c1.7-1.8,3.5-3.6,5.3-5.2L407,81C397.6,71.6,397.6,56.4,407,47L407,47z M480,232
	c0-13.3-10.7-24-24-24s-24,10.7-24,24s10.7,24,24,24S480,245.3,480,232L480,232z M568,256c13.3,0,24-10.7,24-24s-10.7-24-24-24
	s-24,10.7-24,24S554.7,256,568,256z M480,144c0-8.8-7.2-16-16-16s-16,7.2-16,16s7.2,16,16,16S480,152.8,480,144z M528,160
	c8.8,0,16-7.2,16-16s-7.2-16-16-16s-16,7.2-16,16S519.2,160,528,160z"/>
</svg>
