<?xml version="1.0" encoding="utf-8"?>
<!-- Generator: Adobe Illustrator 27.6.1, SVG Export Plug-In . SVG Version: 6.00 Build 0)  -->
<svg version="1.1" id="Layer_1" xmlns="http://www.w3.org/2000/svg" xmlns:xlink="http://www.w3.org/1999/xlink" x="0px" y="0px"
	 viewBox="0 0 512 512" style="enable-background:new 0 0 512 512;" xml:space="preserve">
<style type="text/css">
	.st0{fill:#934799;}
</style>
<path class="st0" d="M268.9,0.9c-5.5-0.7-11,1.4-14.5,5.7s-4.6,10.1-2.8,15.4c2.8,8.2,4.3,16.9,4.3,26.1c0,44.1-35.7,79.9-79.8,80
	H160c-35.3,0-64,28.7-64,64c0,19.1,8.4,36.3,21.7,48H104c-39.8,0-72,32.2-72,72c0,23.2,11,43.8,28,57c-34.1,5.7-60,35.3-60,71
	c0,39.8,32.2,72,72,72h368c39.8,0,72-32.2,72-72c0-35.7-25.9-65.3-60-71c17-13.2,28-33.8,28-57c0-39.8-32.2-72-72-72h-13.7
	c13.3-11.7,21.7-28.9,21.7-48c0-35.3-28.7-64-64-64h-5.5c3.5-10,5.5-20.8,5.5-32C352,47.5,315.8,7.3,268.9,0.9L268.9,0.9z M192,256
	c17.7,0,32,14.3,32,32s-14.3,32-32,32s-32-14.3-32-32S174.3,256,192,256z M288,288c0-17.7,14.3-32,32-32s32,14.3,32,32
	s-14.3,32-32,32S288,305.7,288,288z M352,396.3c0,2.4-0.7,4.8-2.2,6.7c-8.2,10.5-39.5,45-93.8,45s-85.6-34.6-93.8-45
	c-1.5-1.9-2.2-4.3-2.2-6.7c0-6.8,5.5-12.3,12.3-12.3h167.4C346.5,384,352,389.5,352,396.3z"/>
</svg>
